<svg xmlns="http://www.w3.org/2000/svg" xmlns:xlink="http://www.w3.org/1999/xlink" width="500" zoomAndPan="magnify" viewBox="0 0 375 149.999998" height="200" preserveAspectRatio="xMidYMid meet" version="1.0"><defs><g/><clipPath id="04ee74c6df"><path d="M 140 64 L 313.105469 64 L 313.105469 82 L 140 82 Z M 140 64 " clip-rule="nonzero"/></clipPath></defs><g clip-path="url(#04ee74c6df)"><path fill="#d97707" d="M 141.058594 74.738281 C 140.550781 75.527344 139.867188 74.90625 140.304688 74.214844 C 156.414062 48.765625 166.519531 83.289062 198.902344 80.390625 C 248.765625 75.929688 290.445312 61.6875 321.46875 73.949219 C 323.628906 74.804688 322.109375 76.597656 320.285156 75.761719 C 294.464844 63.890625 246.5 76.320312 198.6875 81.355469 C 166.289062 84.765625 157.132812 49.707031 141.058594 74.738281 Z M 141.058594 74.738281 " fill-opacity="1" fill-rule="nonzero"/></g><g fill="#d97707" fill-opacity="1"><g transform="translate(61.554652, 87.274838)"><g><path d="M 9.691406 8.988281 C 16.011719 4.285156 24.929688 -11.449219 28.792969 -16.503906 C 28.792969 -16.855469 27.882812 -16.855469 27.601562 -16.574219 C 24.582031 -12.710938 14.46875 4.636719 8.425781 8.636719 C 0.84375 13.484375 2.527344 -0.914062 2.949219 -4.847656 C 3.511719 -10.605469 4.636719 -16.644531 5.335938 -19.523438 C 28.300781 -45.296875 25.5625 -58.921875 18.46875 -58.921875 C 9.832031 -58.921875 3.441406 -41.714844 0.632812 -24.089844 C -0.492188 -16.996094 -0.984375 -9.761719 -0.84375 -3.652344 C -0.773438 -0.210938 -0.773438 11.027344 4.847656 11.027344 C 6.179688 11.027344 7.796875 10.394531 9.691406 8.988281 Z M 5.546875 -21.351562 C 7.304688 -37.363281 13.0625 -57.097656 18.121094 -57.871094 C 24.089844 -58.359375 26.617188 -46.492188 5.546875 -21.351562 Z M 5.546875 -21.351562 "/></g></g></g><g fill="#d97707" fill-opacity="1"><g transform="translate(88.87398, 87.274838)"><g><path d="M -1.964844 4.636719 C -22.261719 21 -19.242188 44.597656 -11.589844 45.085938 C -2.386719 45.648438 0.703125 21.980469 2.738281 3.019531 C 6.671875 1.054688 18.820312 -7.023438 26.6875 -16.433594 C 26.6875 -16.785156 25.5625 -16.785156 25.351562 -16.503906 C 18.679688 -8.777344 7.375 -0.773438 2.878906 1.683594 C 3.863281 -7.515625 5.195312 -19.875 5.757812 -23.949219 C 6.109375 -27.390625 0.773438 -27.039062 0.351562 -22.191406 C -0.84375 -7.65625 -1.476562 -0.140625 -1.964844 4.636719 Z M -2.035156 6.179688 C -3.722656 21.699219 -5.828125 43.964844 -11.378906 43.964844 C -17.417969 43.964844 -20.015625 21.699219 -2.035156 6.179688 Z M 4.355469 -29.777344 C 6.390625 -29.777344 7.375 -34.902344 5.546875 -35.464844 C 2.667969 -35.746094 1.894531 -29.777344 4.355469 -29.777344 Z M 4.355469 -29.777344 "/></g></g></g><g fill="#d97707" fill-opacity="1"><g transform="translate(113.945959, 87.274838)"><g><path d="M 10.253906 -27.953125 C -1.125 -27.953125 -7.234375 3.371094 3.441406 6.320312 C 5.265625 6.8125 7.515625 6.320312 9.761719 4.636719 C 16.082031 -0.0703125 25.5625 -11.449219 29.425781 -16.503906 C 29.425781 -16.855469 28.511719 -16.855469 28.230469 -16.574219 C 25.210938 -12.710938 14.539062 0.28125 8.496094 4.285156 C 6.320312 5.6875 4.425781 5.96875 3.441406 5.335938 C -1.894531 3.089844 5.40625 -24.300781 10.253906 -26.617188 C 12.78125 -27.8125 16.855469 -21.070312 10.535156 -18.050781 C 11.097656 -18.050781 11.378906 -18.050781 11.796875 -18.050781 C 16.925781 -19.945312 15.238281 -27.953125 10.253906 -27.953125 Z M 10.253906 -27.953125 "/></g></g></g><g fill="#000000" fill-opacity="1"><g transform="translate(144.747749, 101.162179)"><g><path d="M 2.5 -9 L 2.5 -1.171875 L 7.078125 -1.171875 L 7.078125 0 L 1.296875 0 L 1.296875 -9 Z M 2.5 -9 "/></g></g></g><g fill="#000000" fill-opacity="1"><g transform="translate(155.681416, 101.162179)"><g><path d="M 6 -2.359375 L 2.546875 -2.359375 L 1.59375 0 L 0.390625 0 L 4.328125 -9.359375 L 4.40625 -9.359375 L 8.328125 0 L 6.9375 0 Z M 5.59375 -3.40625 L 4.3125 -6.6875 L 2.984375 -3.40625 Z M 5.59375 -3.40625 "/></g></g></g><g fill="#000000" fill-opacity="1"><g transform="translate(167.597726, 101.162179)"><g/></g></g><g fill="#000000" fill-opacity="1"><g transform="translate(174.725189, 101.162179)"><g><path d="M 3.25 -1.625 C 3.25 -0.914062 3.109375 -0.300781 2.828125 0.21875 C 2.554688 0.738281 2.175781 1.132812 1.6875 1.40625 C 1.207031 1.6875 0.65625 1.835938 0.03125 1.859375 L 0.03125 0.6875 C 0.644531 0.65625 1.132812 0.441406 1.5 0.046875 C 1.863281 -0.347656 2.046875 -0.921875 2.046875 -1.671875 L 2.046875 -9 L 3.25 -9 Z M 3.25 -1.625 "/></g></g></g><g fill="#000000" fill-opacity="1"><g transform="translate(182.462146, 101.162179)"><g><path d="M 2.390625 -3.1875 C 2.390625 -2.789062 2.484375 -2.429688 2.671875 -2.109375 C 2.859375 -1.785156 3.113281 -1.53125 3.4375 -1.34375 C 3.769531 -1.15625 4.140625 -1.0625 4.546875 -1.0625 C 4.953125 -1.0625 5.320312 -1.148438 5.65625 -1.328125 C 6 -1.515625 6.265625 -1.769531 6.453125 -2.09375 C 6.640625 -2.425781 6.734375 -2.789062 6.734375 -3.1875 L 6.734375 -9 L 7.921875 -9 L 7.921875 -3.140625 C 7.921875 -2.503906 7.769531 -1.9375 7.46875 -1.4375 C 7.175781 -0.945312 6.769531 -0.566406 6.25 -0.296875 C 5.738281 -0.0351562 5.171875 0.09375 4.546875 0.09375 C 3.921875 0.09375 3.347656 -0.0351562 2.828125 -0.296875 C 2.316406 -0.566406 1.914062 -0.945312 1.625 -1.4375 C 1.332031 -1.9375 1.1875 -2.503906 1.1875 -3.140625 L 1.1875 -9 L 2.390625 -9 Z M 2.390625 -3.1875 "/></g></g></g><g fill="#000000" fill-opacity="1"><g transform="translate(194.764053, 101.162179)"><g><path d="M 9.125 -9 L 9.125 0.296875 L 9.09375 0.296875 L 2.484375 -6.40625 L 2.515625 0 L 1.296875 0 L 1.296875 -9.265625 L 1.359375 -9.265625 L 7.953125 -2.484375 L 7.921875 -9 Z M 9.125 -9 "/></g></g></g><g fill="#000000" fill-opacity="1"><g transform="translate(208.384442, 101.162179)"><g><path d="M 6.609375 -9 L 6.609375 -7.828125 L 4.1875 -7.828125 L 4.1875 0 L 2.984375 0 L 2.984375 -7.828125 L 0.640625 -7.828125 L 0.640625 -9 Z M 6.609375 -9 "/></g></g></g><g fill="#000000" fill-opacity="1"><g transform="translate(218.820561, 101.162179)"><g><path d="M 6 -2.359375 L 2.546875 -2.359375 L 1.59375 0 L 0.390625 0 L 4.328125 -9.359375 L 4.40625 -9.359375 L 8.328125 0 L 6.9375 0 Z M 5.59375 -3.40625 L 4.3125 -6.6875 L 2.984375 -3.40625 Z M 5.59375 -3.40625 "/></g></g></g><g fill="#000000" fill-opacity="1"><g transform="translate(230.736868, 101.162179)"><g/></g></g><g fill="#000000" fill-opacity="1"><g transform="translate(237.864328, 101.162179)"><g><path d="M 7.890625 -0.671875 C 7.609375 -0.484375 7.242188 -0.304688 6.796875 -0.140625 C 6.347656 0.015625 5.863281 0.09375 5.34375 0.09375 C 4.425781 0.09375 3.613281 -0.109375 2.90625 -0.515625 C 2.207031 -0.921875 1.671875 -1.46875 1.296875 -2.15625 C 0.921875 -2.84375 0.734375 -3.597656 0.734375 -4.421875 C 0.734375 -5.316406 0.921875 -6.117188 1.296875 -6.828125 C 1.679688 -7.535156 2.210938 -8.085938 2.890625 -8.484375 C 3.566406 -8.890625 4.332031 -9.09375 5.1875 -9.09375 C 5.6875 -9.09375 6.15625 -9.023438 6.59375 -8.890625 C 7.039062 -8.753906 7.4375 -8.582031 7.78125 -8.375 L 7.296875 -7.234375 C 6.609375 -7.703125 5.914062 -7.9375 5.21875 -7.9375 C 4.644531 -7.9375 4.109375 -7.78125 3.609375 -7.46875 C 3.117188 -7.164062 2.722656 -6.75 2.421875 -6.21875 C 2.128906 -5.695312 1.984375 -5.117188 1.984375 -4.484375 C 1.984375 -3.835938 2.117188 -3.253906 2.390625 -2.734375 C 2.660156 -2.210938 3.046875 -1.800781 3.546875 -1.5 C 4.046875 -1.207031 4.625 -1.0625 5.28125 -1.0625 C 6.09375 -1.0625 6.796875 -1.289062 7.390625 -1.75 Z M 7.890625 -0.671875 "/></g></g></g><g fill="#000000" fill-opacity="1"><g transform="translate(249.693568, 101.162179)"><g><path d="M 6.25 0 L 4.125 -3.328125 C 4.0625 -3.316406 3.960938 -3.3125 3.828125 -3.3125 L 2.5 -3.3125 L 2.5 0 L 1.296875 0 L 1.296875 -9 L 3.6875 -9 C 4.300781 -9 4.847656 -8.890625 5.328125 -8.671875 C 5.816406 -8.453125 6.195312 -8.132812 6.46875 -7.71875 C 6.738281 -7.300781 6.875 -6.796875 6.875 -6.203125 C 6.875 -5.648438 6.75 -5.140625 6.5 -4.671875 C 6.257812 -4.210938 5.890625 -3.863281 5.390625 -3.625 L 7.65625 0 Z M 3.8125 -4.484375 C 4.457031 -4.484375 4.921875 -4.648438 5.203125 -4.984375 C 5.492188 -5.328125 5.640625 -5.71875 5.640625 -6.15625 C 5.640625 -6.414062 5.578125 -6.675781 5.453125 -6.9375 C 5.335938 -7.195312 5.144531 -7.410156 4.875 -7.578125 C 4.613281 -7.742188 4.285156 -7.828125 3.890625 -7.828125 L 2.5 -7.828125 L 2.5 -4.484375 Z M 3.8125 -4.484375 "/></g></g></g><g fill="#000000" fill-opacity="1"><g transform="translate(261.0999, 101.162179)"><g><path d="M 6 -2.359375 L 2.546875 -2.359375 L 1.59375 0 L 0.390625 0 L 4.328125 -9.359375 L 4.40625 -9.359375 L 8.328125 0 L 6.9375 0 Z M 5.59375 -3.40625 L 4.3125 -6.6875 L 2.984375 -3.40625 Z M 5.59375 -3.40625 "/></g></g></g><g fill="#000000" fill-opacity="1"><g transform="translate(273.016208, 101.162179)"><g><path d="M 6.625 -9 L 6.625 -7.828125 L 2.5 -7.828125 L 2.5 -4.96875 L 6.125 -4.96875 L 6.125 -3.8125 L 2.5 -3.8125 L 2.5 0 L 1.296875 0 L 1.296875 -9 Z M 6.625 -9 "/></g></g></g><g fill="#000000" fill-opacity="1"><g transform="translate(283.539405, 101.162179)"><g><path d="M 6.609375 -9 L 6.609375 -7.828125 L 4.1875 -7.828125 L 4.1875 0 L 2.984375 0 L 2.984375 -7.828125 L 0.640625 -7.828125 L 0.640625 -9 Z M 6.609375 -9 "/></g></g></g><g fill="#000000" fill-opacity="1"><g transform="translate(293.975523, 101.162179)"><g><path d="M 5.9375 -7.390625 C 5.613281 -7.566406 5.269531 -7.707031 4.90625 -7.8125 C 4.539062 -7.914062 4.195312 -7.96875 3.875 -7.96875 C 3.382812 -7.96875 2.992188 -7.859375 2.703125 -7.640625 C 2.421875 -7.421875 2.28125 -7.117188 2.28125 -6.734375 C 2.28125 -6.367188 2.445312 -6.066406 2.78125 -5.828125 C 3.125 -5.585938 3.609375 -5.351562 4.234375 -5.125 C 4.691406 -4.957031 5.082031 -4.773438 5.40625 -4.578125 C 5.726562 -4.390625 5.992188 -4.125 6.203125 -3.78125 C 6.410156 -3.4375 6.515625 -3 6.515625 -2.46875 C 6.515625 -1.976562 6.394531 -1.539062 6.15625 -1.15625 C 5.914062 -0.769531 5.570312 -0.460938 5.125 -0.234375 C 4.6875 -0.015625 4.164062 0.09375 3.5625 0.09375 C 3.007812 0.09375 2.472656 0.00390625 1.953125 -0.171875 C 1.441406 -0.347656 0.992188 -0.570312 0.609375 -0.84375 L 1.140625 -1.796875 C 1.453125 -1.566406 1.820312 -1.367188 2.25 -1.203125 C 2.675781 -1.046875 3.078125 -0.96875 3.453125 -0.96875 C 3.929688 -0.96875 4.351562 -1.09375 4.71875 -1.34375 C 5.082031 -1.59375 5.265625 -1.960938 5.265625 -2.453125 C 5.265625 -2.867188 5.113281 -3.195312 4.8125 -3.4375 C 4.507812 -3.6875 4.082031 -3.914062 3.53125 -4.125 C 3.03125 -4.320312 2.609375 -4.507812 2.265625 -4.6875 C 1.929688 -4.875 1.644531 -5.125 1.40625 -5.4375 C 1.164062 -5.757812 1.046875 -6.160156 1.046875 -6.640625 C 1.046875 -7.347656 1.289062 -7.914062 1.78125 -8.34375 C 2.28125 -8.78125 2.921875 -9.015625 3.703125 -9.046875 C 4.671875 -9.046875 5.570312 -8.804688 6.40625 -8.328125 Z M 5.9375 -7.390625 "/></g></g></g></svg>