<svg xmlns="http://www.w3.org/2000/svg" xmlns:xlink="http://www.w3.org/1999/xlink" width="500" zoomAndPan="magnify" viewBox="0 0 375 374.999991" height="500" preserveAspectRatio="xMidYMid meet" version="1.0"><defs><g/><clipPath id="3385214c7f"><path d="M 132.027344 177 L 321 177 L 321 195 L 132.027344 195 Z M 132.027344 177 " clip-rule="nonzero"/></clipPath></defs><g clip-path="url(#3385214c7f)"><path fill="#d97707" d="M 133.269531 187.605469 C 132.75 188.410156 132.042969 187.773438 132.492188 187.070312 C 149.128906 161.082031 159.5625 196.335938 193.003906 193.375 C 244.492188 188.820312 287.535156 174.277344 319.570312 186.796875 C 321.804688 187.671875 320.230469 189.503906 318.351562 188.648438 C 291.6875 176.527344 242.15625 189.21875 192.78125 194.359375 C 159.324219 197.839844 149.867188 162.042969 133.269531 187.605469 Z M 133.269531 187.605469 " fill-opacity="1" fill-rule="nonzero"/></g><g fill="#d97707" fill-opacity="1"><g transform="translate(63.960938, 200.249987)"><g><path d="M 8.28125 7.679688 C 13.679688 3.660156 21.300781 -9.78125 24.601562 -14.101562 C 24.601562 -14.398438 23.820312 -14.398438 23.578125 -14.160156 C 21 -10.859375 12.359375 3.960938 7.199219 7.378906 C 0.71875 11.519531 2.160156 -0.78125 2.519531 -4.140625 C 3 -9.058594 3.960938 -14.21875 4.558594 -16.679688 C 24.179688 -38.699219 21.839844 -50.339844 15.78125 -50.339844 C 8.398438 -50.339844 2.941406 -35.640625 0.539062 -20.578125 C -0.421875 -14.519531 -0.839844 -8.339844 -0.71875 -3.121094 C -0.660156 -0.179688 -0.660156 9.421875 4.140625 9.421875 C 5.28125 9.421875 6.660156 8.878906 8.28125 7.679688 Z M 4.738281 -18.238281 C 6.238281 -31.921875 11.160156 -48.78125 15.480469 -49.441406 C 20.578125 -49.859375 22.738281 -39.71875 4.738281 -18.238281 Z M 4.738281 -18.238281 "/></g></g></g><g fill="#d97707" fill-opacity="1"><g transform="translate(87.30091, 200.249987)"><g><path d="M -1.679688 3.960938 C -19.019531 17.941406 -16.441406 38.101562 -9.898438 38.519531 C -2.039062 39 0.601562 18.78125 2.339844 2.578125 C 5.699219 0.898438 16.078125 -6 22.800781 -14.039062 C 22.800781 -14.339844 21.839844 -14.339844 21.660156 -14.101562 C 15.960938 -7.5 6.300781 -0.660156 2.460938 1.441406 C 3.300781 -6.421875 4.441406 -16.980469 4.921875 -20.460938 C 5.21875 -23.398438 0.660156 -23.101562 0.300781 -18.960938 C -0.71875 -6.539062 -1.261719 -0.121094 -1.679688 3.960938 Z M -1.738281 5.28125 C -3.179688 18.539062 -4.980469 37.558594 -9.71875 37.558594 C -14.878906 37.558594 -17.101562 18.539062 -1.738281 5.28125 Z M 3.71875 -25.441406 C 5.460938 -25.441406 6.300781 -29.820312 4.738281 -30.300781 C 2.28125 -30.539062 1.621094 -25.441406 3.71875 -25.441406 Z M 3.71875 -25.441406 "/></g></g></g><g fill="#d97707" fill-opacity="1"><g transform="translate(108.720884, 200.249987)"><g><path d="M 8.761719 -23.878906 C -0.960938 -23.878906 -6.179688 2.878906 2.941406 5.398438 C 4.5 5.820312 6.421875 5.398438 8.339844 3.960938 C 13.738281 -0.0585938 21.839844 -9.78125 25.140625 -14.101562 C 25.140625 -14.398438 24.359375 -14.398438 24.121094 -14.160156 C 21.539062 -10.859375 12.421875 0.238281 7.261719 3.660156 C 5.398438 4.859375 3.78125 5.101562 2.941406 4.558594 C -1.621094 2.640625 4.621094 -20.761719 8.761719 -22.738281 C 10.921875 -23.761719 14.398438 -18 9 -15.421875 C 9.480469 -15.421875 9.71875 -15.421875 10.078125 -15.421875 C 14.460938 -17.039062 13.019531 -23.878906 8.761719 -23.878906 Z M 8.761719 -23.878906 "/></g></g></g><g fill="#000000" fill-opacity="1"><g transform="translate(139.936745, 217.664487)"><g><path d="M 2.546875 -9.140625 L 2.546875 -1.1875 L 7.1875 -1.1875 L 7.1875 0 L 1.3125 0 L 1.3125 -9.140625 Z M 2.546875 -9.140625 "/></g></g></g><g fill="#000000" fill-opacity="1"><g transform="translate(151.051408, 217.664487)"><g><path d="M 6.109375 -2.40625 L 2.59375 -2.40625 L 1.625 0 L 0.40625 0 L 4.40625 -9.515625 L 4.46875 -9.515625 L 8.46875 0 L 7.046875 0 Z M 5.6875 -3.46875 L 4.390625 -6.796875 L 3.03125 -3.46875 Z M 5.6875 -3.46875 "/></g></g></g><g fill="#000000" fill-opacity="1"><g transform="translate(163.164982, 217.664487)"><g/></g></g><g fill="#000000" fill-opacity="1"><g transform="translate(170.410433, 217.664487)"><g><path d="M 3.296875 -1.65625 C 3.296875 -0.925781 3.15625 -0.300781 2.875 0.21875 C 2.601562 0.75 2.21875 1.15625 1.71875 1.4375 C 1.226562 1.71875 0.664062 1.867188 0.03125 1.890625 L 0.03125 0.6875 C 0.65625 0.65625 1.148438 0.4375 1.515625 0.03125 C 1.890625 -0.363281 2.078125 -0.9375 2.078125 -1.6875 L 2.078125 -9.140625 L 3.296875 -9.140625 Z M 3.296875 -1.65625 "/></g></g></g><g fill="#000000" fill-opacity="1"><g transform="translate(178.275468, 217.664487)"><g><path d="M 2.421875 -3.234375 C 2.421875 -2.828125 2.519531 -2.460938 2.71875 -2.140625 C 2.914062 -1.816406 3.175781 -1.5625 3.5 -1.375 C 3.832031 -1.1875 4.203125 -1.09375 4.609375 -1.09375 C 5.035156 -1.09375 5.414062 -1.179688 5.75 -1.359375 C 6.09375 -1.546875 6.359375 -1.800781 6.546875 -2.125 C 6.742188 -2.457031 6.84375 -2.828125 6.84375 -3.234375 L 6.84375 -9.140625 L 8.046875 -9.140625 L 8.046875 -3.203125 C 8.046875 -2.546875 7.894531 -1.96875 7.59375 -1.46875 C 7.289062 -0.96875 6.878906 -0.582031 6.359375 -0.3125 C 5.835938 -0.0390625 5.253906 0.09375 4.609375 0.09375 C 3.984375 0.09375 3.40625 -0.0390625 2.875 -0.3125 C 2.351562 -0.582031 1.941406 -0.96875 1.640625 -1.46875 C 1.347656 -1.96875 1.203125 -2.546875 1.203125 -3.203125 L 1.203125 -9.140625 L 2.421875 -9.140625 Z M 2.421875 -3.234375 "/></g></g></g><g fill="#000000" fill-opacity="1"><g transform="translate(190.781021, 217.664487)"><g><path d="M 9.28125 -9.140625 L 9.28125 0.296875 L 9.234375 0.296875 L 2.53125 -6.515625 L 2.546875 0 L 1.3125 0 L 1.3125 -9.421875 L 1.375 -9.421875 L 8.078125 -2.53125 L 8.046875 -9.140625 Z M 9.28125 -9.140625 "/></g></g></g><g fill="#000000" fill-opacity="1"><g transform="translate(204.626883, 217.664487)"><g><path d="M 6.71875 -9.140625 L 6.71875 -7.96875 L 4.265625 -7.96875 L 4.265625 0 L 3.03125 0 L 3.03125 -7.96875 L 0.640625 -7.96875 L 0.640625 -9.140625 Z M 6.71875 -9.140625 "/></g></g></g><g fill="#000000" fill-opacity="1"><g transform="translate(215.235762, 217.664487)"><g><path d="M 6.109375 -2.40625 L 2.59375 -2.40625 L 1.625 0 L 0.40625 0 L 4.40625 -9.515625 L 4.46875 -9.515625 L 8.46875 0 L 7.046875 0 Z M 5.6875 -3.46875 L 4.390625 -6.796875 L 3.03125 -3.46875 Z M 5.6875 -3.46875 "/></g></g></g><g fill="#000000" fill-opacity="1"><g transform="translate(227.349332, 217.664487)"><g/></g></g><g fill="#000000" fill-opacity="1"><g transform="translate(234.594781, 217.664487)"><g><path d="M 8.03125 -0.6875 C 7.726562 -0.488281 7.351562 -0.304688 6.90625 -0.140625 C 6.457031 0.015625 5.96875 0.09375 5.4375 0.09375 C 4.5 0.09375 3.671875 -0.109375 2.953125 -0.515625 C 2.242188 -0.929688 1.695312 -1.488281 1.3125 -2.1875 C 0.9375 -2.882812 0.75 -3.65625 0.75 -4.5 C 0.75 -5.40625 0.941406 -6.21875 1.328125 -6.9375 C 1.710938 -7.65625 2.25 -8.21875 2.9375 -8.625 C 3.625 -9.03125 4.398438 -9.234375 5.265625 -9.234375 C 5.785156 -9.234375 6.265625 -9.164062 6.703125 -9.03125 C 7.148438 -8.894531 7.550781 -8.71875 7.90625 -8.5 L 7.421875 -7.359375 C 6.722656 -7.828125 6.019531 -8.0625 5.3125 -8.0625 C 4.71875 -8.0625 4.171875 -7.90625 3.671875 -7.59375 C 3.171875 -7.28125 2.769531 -6.859375 2.46875 -6.328125 C 2.164062 -5.796875 2.015625 -5.207031 2.015625 -4.5625 C 2.015625 -3.90625 2.148438 -3.3125 2.421875 -2.78125 C 2.703125 -2.25 3.097656 -1.832031 3.609375 -1.53125 C 4.117188 -1.238281 4.707031 -1.09375 5.375 -1.09375 C 6.1875 -1.09375 6.898438 -1.320312 7.515625 -1.78125 Z M 8.03125 -0.6875 "/></g></g></g><g fill="#000000" fill-opacity="1"><g transform="translate(246.619842, 217.664487)"><g><path d="M 6.34375 0 L 4.203125 -3.375 C 4.128906 -3.363281 4.023438 -3.359375 3.890625 -3.359375 L 2.546875 -3.359375 L 2.546875 0 L 1.3125 0 L 1.3125 -9.140625 L 3.75 -9.140625 C 4.375 -9.140625 4.929688 -9.03125 5.421875 -8.8125 C 5.910156 -8.59375 6.289062 -8.269531 6.5625 -7.84375 C 6.84375 -7.414062 6.984375 -6.90625 6.984375 -6.3125 C 6.984375 -5.738281 6.859375 -5.21875 6.609375 -4.75 C 6.367188 -4.28125 5.988281 -3.921875 5.46875 -3.671875 L 7.78125 0 Z M 3.875 -4.546875 C 4.53125 -4.546875 5 -4.71875 5.28125 -5.0625 C 5.570312 -5.414062 5.71875 -5.8125 5.71875 -6.25 C 5.71875 -6.519531 5.65625 -6.785156 5.53125 -7.046875 C 5.414062 -7.316406 5.222656 -7.535156 4.953125 -7.703125 C 4.691406 -7.878906 4.359375 -7.96875 3.953125 -7.96875 L 2.546875 -7.96875 L 2.546875 -4.546875 Z M 3.875 -4.546875 "/></g></g></g><g fill="#000000" fill-opacity="1"><g transform="translate(258.214995, 217.664487)"><g><path d="M 6.109375 -2.40625 L 2.59375 -2.40625 L 1.625 0 L 0.40625 0 L 4.40625 -9.515625 L 4.46875 -9.515625 L 8.46875 0 L 7.046875 0 Z M 5.6875 -3.46875 L 4.390625 -6.796875 L 3.03125 -3.46875 Z M 5.6875 -3.46875 "/></g></g></g><g fill="#000000" fill-opacity="1"><g transform="translate(270.328566, 217.664487)"><g><path d="M 6.734375 -9.140625 L 6.734375 -7.96875 L 2.546875 -7.96875 L 2.546875 -5.0625 L 6.21875 -5.0625 L 6.21875 -3.875 L 2.546875 -3.875 L 2.546875 0 L 1.3125 0 L 1.3125 -9.140625 Z M 6.734375 -9.140625 "/></g></g></g><g fill="#000000" fill-opacity="1"><g transform="translate(281.025964, 217.664487)"><g><path d="M 6.71875 -9.140625 L 6.71875 -7.96875 L 4.265625 -7.96875 L 4.265625 0 L 3.03125 0 L 3.03125 -7.96875 L 0.640625 -7.96875 L 0.640625 -9.140625 Z M 6.71875 -9.140625 "/></g></g></g><g fill="#000000" fill-opacity="1"><g transform="translate(291.634843, 217.664487)"><g><path d="M 6.046875 -7.515625 C 5.710938 -7.691406 5.359375 -7.832031 4.984375 -7.9375 C 4.617188 -8.050781 4.269531 -8.109375 3.9375 -8.109375 C 3.445312 -8.109375 3.054688 -7.992188 2.765625 -7.765625 C 2.472656 -7.546875 2.328125 -7.238281 2.328125 -6.84375 C 2.328125 -6.46875 2.492188 -6.160156 2.828125 -5.921875 C 3.171875 -5.679688 3.660156 -5.441406 4.296875 -5.203125 C 4.765625 -5.035156 5.160156 -4.851562 5.484375 -4.65625 C 5.816406 -4.457031 6.085938 -4.179688 6.296875 -3.828125 C 6.515625 -3.484375 6.625 -3.039062 6.625 -2.5 C 6.625 -2.007812 6.5 -1.566406 6.25 -1.171875 C 6.007812 -0.773438 5.660156 -0.460938 5.203125 -0.234375 C 4.753906 -0.015625 4.226562 0.09375 3.625 0.09375 C 3.0625 0.09375 2.519531 0.00390625 2 -0.171875 C 1.476562 -0.347656 1.019531 -0.578125 0.625 -0.859375 L 1.15625 -1.828125 C 1.46875 -1.597656 1.84375 -1.398438 2.28125 -1.234375 C 2.71875 -1.066406 3.128906 -0.984375 3.515625 -0.984375 C 4.003906 -0.984375 4.429688 -1.109375 4.796875 -1.359375 C 5.160156 -1.617188 5.34375 -1.992188 5.34375 -2.484375 C 5.34375 -2.910156 5.1875 -3.25 4.875 -3.5 C 4.570312 -3.75 4.144531 -3.984375 3.59375 -4.203125 C 3.070312 -4.390625 2.640625 -4.578125 2.296875 -4.765625 C 1.960938 -4.953125 1.671875 -5.207031 1.421875 -5.53125 C 1.179688 -5.851562 1.0625 -6.257812 1.0625 -6.75 C 1.0625 -7.46875 1.3125 -8.046875 1.8125 -8.484375 C 2.3125 -8.929688 2.960938 -9.164062 3.765625 -9.1875 C 4.753906 -9.1875 5.671875 -8.941406 6.515625 -8.453125 Z M 6.046875 -7.515625 "/></g></g></g></svg>